<svg xmlns="http://www.w3.org/2000/svg" viewBox="0 0 1024 1024" role="img" aria-label="XOholy">
  <title>XOholy</title>
  <!--
    App icon: XO only. No cross, no dove, no Bible — iconic rather than explanatory, so it
    sits on a home screen beside TikTok and Spotify without announcing itself as a
    religious app. Generated by generate-wordmark.py.
  -->
  <rect width="1024" height="1024" fill="#11110F" />
  <g transform="translate(277.00 389.28) scale(2.4544)" fill="#A58B54">
    <path d="M3.09 100.00 46.17 38.86V59.60L7.11 0.00H38.59L46.58 13.02Q49.53 17.79 51.44 22.11Q53.36 26.44 54.93 30.30Q56.51 34.16 58.39 37.52H50.20Q52.21 34.16 53.83 30.30Q55.44 26.44 57.38 22.11Q59.33 17.79 62.28 13.02L70.40 0.00H101.07L63.22 57.99V38.59L104.97 100.00H72.55L61.68 82.82Q58.99 78.52 57.48 75.60Q55.97 72.68 54.87 70.34Q53.76 67.99 52.15 65.44H55.77Q54.23 67.99 53.09 70.37Q51.95 72.75 50.44 75.67Q48.93 78.59 46.11 82.82L34.63 100.00Z" />
    <path d="M145.07 101.34Q131.45 101.34 120.41 95.44Q109.37 89.53 102.93 78.09Q96.48 66.64 96.48 50.07Q96.48 33.36 102.93 21.88Q109.37 10.40 120.41 4.53Q131.45 -1.34 145.07 -1.34Q158.70 -1.34 169.70 4.53Q180.71 10.40 187.19 21.88Q193.66 33.36 193.66 50.07Q193.66 66.71 187.19 78.15Q180.71 89.60 169.70 95.47Q158.70 101.34 145.07 101.34ZM145.07 77.72Q151.85 77.72 156.45 74.53Q161.05 71.34 163.40 65.17Q165.74 58.99 165.74 50.07Q165.74 41.07 163.40 34.87Q161.05 28.66 156.45 25.47Q151.85 22.28 145.07 22.28Q138.36 22.28 133.77 25.47Q129.17 28.66 126.79 34.87Q124.40 41.07 124.40 50.07Q124.40 58.99 126.79 65.17Q129.17 71.34 133.77 74.53Q138.36 77.72 145.07 77.72Z" />
  </g>
</svg>
